<svg width="24" height="25" viewBox="0 0 24 25" fill="none" xmlns="http://www.w3.org/2000/svg">
<path d="M4 19.5391V10.5391C4 10.2224 4.071 9.9224 4.213 9.63906C4.355 9.35573 4.55067 9.1224 4.8 8.93906L10.8 4.43906C11.15 4.1724 11.55 4.03906 12 4.03906C12.45 4.03906 12.85 4.1724 13.2 4.43906L19.2 8.93906C19.45 9.1224 19.646 9.35573 19.788 9.63906C19.93 9.9224 20.0007 10.2224 20 10.5391V19.5391C20 20.0891 19.804 20.5601 19.412 20.9521C19.02 21.3441 18.5493 21.5397 18 21.5391H15C14.7167 21.5391 14.4793 21.4431 14.288 21.2511C14.0967 21.0591 14.0007 20.8217 14 20.5391V15.5391C14 15.2557 13.904 15.0184 13.712 14.8271C13.52 14.6357 13.2827 14.5397 13 14.5391H11C10.7167 14.5391 10.4793 14.6351 10.288 14.8271C10.0967 15.0191 10.0007 15.2564 10 15.5391V20.5391C10 20.8224 9.904 21.0601 9.712 21.2521C9.52 21.4441 9.28267 21.5397 9 21.5391H6C5.45 21.5391 4.97933 21.3434 4.588 20.9521C4.19667 20.5607 4.00067 20.0897 4 19.5391Z" fill="black"/>
</svg>
