<svg width="25" height="25" viewBox="0 0 25 25" fill="none" xmlns="http://www.w3.org/2000/svg">
<path d="M20.0352 5.44912C19.1182 4.52322 18.0262 3.78908 16.8227 3.28948C15.6192 2.78987 14.3282 2.5348 13.0252 2.53912C7.56516 2.53912 3.11516 6.98912 3.11516 12.4491C3.11516 14.1991 3.57516 15.8991 4.43516 17.3991L3.03516 22.5391L8.28516 21.1591C9.73516 21.9491 11.3652 22.3691 13.0252 22.3691C18.4852 22.3691 22.9352 17.9191 22.9352 12.4591C22.9352 9.80912 21.9052 7.31912 20.0352 5.44912ZM13.0252 20.6891C11.5452 20.6891 10.0952 20.2891 8.82516 19.5391L8.52516 19.3591L5.40516 20.1791L6.23516 17.1391L6.03516 16.8291C5.2127 15.5162 4.77608 13.9984 4.77516 12.4491C4.77516 7.90912 8.47516 4.20912 13.0152 4.20912C15.2152 4.20912 17.2852 5.06912 18.8352 6.62912C19.6028 7.39298 20.2111 8.30166 20.6248 9.30244C21.0385 10.3032 21.2494 11.3762 21.2452 12.4591C21.2652 16.9991 17.5652 20.6891 13.0252 20.6891ZM17.5452 14.5291C17.2952 14.4091 16.0752 13.8091 15.8552 13.7191C15.6252 13.6391 15.4652 13.5991 15.2952 13.8391C15.1252 14.0891 14.6552 14.6491 14.5152 14.8091C14.3752 14.9791 14.2252 14.9991 13.9752 14.8691C13.7252 14.7491 12.9252 14.4791 11.9852 13.6391C11.2452 12.9791 10.7552 12.1691 10.6052 11.9191C10.4652 11.6691 10.5852 11.5391 10.7152 11.4091C10.8252 11.2991 10.9652 11.1191 11.0852 10.9791C11.2052 10.8391 11.2552 10.7291 11.3352 10.5691C11.4152 10.3991 11.3752 10.2591 11.3152 10.1391C11.2552 10.0191 10.7552 8.79912 10.5552 8.29912C10.3552 7.81912 10.1452 7.87912 9.99516 7.86912H9.51516C9.34516 7.86912 9.08516 7.92912 8.85516 8.17912C8.63516 8.42912 7.99516 9.02912 7.99516 10.2491C7.99516 11.4691 8.88516 12.6491 9.00516 12.8091C9.12516 12.9791 10.7552 15.4791 13.2352 16.5491C13.8252 16.8091 14.2852 16.9591 14.6452 17.0691C15.2352 17.2591 15.7752 17.2291 16.2052 17.1691C16.6852 17.0991 17.6752 16.5691 17.8752 15.9891C18.0852 15.4091 18.0852 14.9191 18.0152 14.8091C17.9452 14.6991 17.7952 14.6491 17.5452 14.5291Z" fill="black"/>
</svg>
